<svg version="1.1" id="Layer_1" xmlns="http://www.w3.org/2000/svg" xmlns:xlink="http://www.w3.org/1999/xlink" x="0px" y="0px"
	 width="100%" viewBox="0 0 388 510" enable-background="new 0 0 388 510" xml:space="preserve" fill="#50C878">

<path fill="#6AD09D" opacity="1.000000" stroke="none" 
	d="
M353.124268,445.124390 
	C336.255280,461.987122 319.573853,478.538208 303.065613,495.260284 
	C299.399536,498.973877 295.346710,500.595795 290.187378,500.591980 
	C205.526413,500.529755 120.865395,500.565857 36.204407,500.527679 
	C23.704216,500.522034 17.563614,494.259552 17.562372,481.707092 
	C17.547537,331.883789 17.547213,182.060455 17.563103,32.237144 
	C17.564434,19.678089 23.716391,13.585382 36.274384,13.584463 
	C144.100510,13.576569 251.926620,13.576164 359.752747,13.584920 
	C372.279938,13.585938 378.435028,19.702906 378.436768,32.265308 
	C378.454285,158.923508 378.433136,285.581696 378.501984,412.239868 
	C378.504791,417.415863 377.000122,421.510284 373.207794,425.115173 
	C366.445831,431.542969 359.969788,438.271545 353.124268,445.124390 
M300.500275,20.564991 
	C252.247681,20.564991 203.995102,20.564991 155.637970,20.564991 
	C155.637970,178.532761 155.637970,335.781708 155.637970,493.227600 
	C201.467636,493.227600 247.027115,493.227600 292.846161,493.227600 
	C292.846161,472.903351 292.783539,452.916687 292.870850,432.930664 
	C292.919098,421.889374 299.993683,414.933746 311.084656,414.893494 
	C327.584106,414.833588 344.083893,414.877228 360.583557,414.876831 
	C364.047882,414.876740 367.512207,414.876831 371.227295,414.876831 
	C371.320770,412.969421 371.454803,411.509888 371.454926,410.050354 
	C371.464447,284.219635 371.468231,158.388931 371.453918,32.558216 
	C371.452881,23.524759 368.483002,20.581446 359.499084,20.571798 
	C340.166199,20.551041 320.833221,20.565138 300.500275,20.564991 
M96.785492,98.385330 
	C96.190689,98.798347 95.595886,99.211365 94.456535,100.002502 
	C102.635269,102.219810 109.161133,105.914703 114.061218,112.182770 
	C118.914383,118.390823 121.038757,125.524071 121.220985,133.508392 
	C135.083527,122.685883 140.368576,99.941498 133.509094,81.778725 
	C126.139771,62.265965 106.481705,49.175499 86.460930,50.448940 
	C64.034225,51.875412 45.970070,66.634674 41.125320,87.490242 
	C37.154053,104.585648 43.769882,126.259033 55.124031,132.951538 
	C56.134354,115.641579 65.262680,104.755257 81.994858,99.815536 
	C72.932426,94.386147 69.709198,86.688133 72.726875,78.582733 
	C75.240875,71.830185 81.262825,67.728477 88.515495,67.828682 
	C95.443916,67.924416 101.537117,72.231834 103.818855,78.646980 
	C106.367805,85.813393 104.181755,92.421898 96.785492,98.385330 
M314.411194,431.928040 
	C317.427582,428.506714 320.443970,425.085419 323.232422,421.922638 
	C319.026489,421.922638 314.058472,421.727692 309.113129,421.979034 
	C304.427002,422.217133 300.688812,425.078247 300.316467,429.453491 
	C299.613922,437.708038 300.113617,446.064941 300.113617,453.377075 
	C304.509705,446.721985 309.222107,439.587982 314.411194,431.928040 
z"/>
<path fill="#F5F5F5" opacity="1.000000" stroke="none" 
	d="
M301.000305,20.564980 
	C320.833221,20.565138 340.166199,20.551041 359.499084,20.571798 
	C368.483002,20.581446 371.452881,23.524759 371.453918,32.558216 
	C371.468231,158.388931 371.464447,284.219635 371.454926,410.050354 
	C371.454803,411.509888 371.320770,412.969421 371.227295,414.876831 
	C367.512207,414.876831 364.047882,414.876740 360.583557,414.876831 
	C344.083893,414.877228 327.584106,414.833588 311.084656,414.893494 
	C299.993683,414.933746 292.919098,421.889374 292.870850,432.930664 
	C292.783539,452.916687 292.846161,472.903351 292.846161,493.227600 
	C247.027115,493.227600 201.467636,493.227600 155.637970,493.227600 
	C155.637970,335.781708 155.637970,178.532761 155.637970,20.564991 
	C203.995102,20.564991 252.247681,20.564991 301.000305,20.564980 
M229.500290,134.505020 
	C214.184601,134.505096 198.868912,134.496094 183.553253,134.513901 
	C180.891327,134.516983 177.606659,134.212311 177.583130,138.008362 
	C177.559891,141.762604 180.790451,141.572754 183.488815,141.620193 
	C183.988083,141.628967 184.487640,141.621674 184.987061,141.621674 
	C234.763000,141.621689 284.538940,141.622406 334.314880,141.617752 
	C335.645203,141.617630 337.192413,141.976181 338.252502,141.425049 
	C339.667908,140.689194 340.705109,139.225845 341.904724,138.074951 
	C340.727478,136.912933 339.730347,135.367264 338.318726,134.704437 
	C337.081146,134.123337 335.378387,134.508774 333.881104,134.508575 
	C299.420837,134.503998 264.960571,134.505066 229.500290,134.505020 
M324.489868,188.505417 
	C278.542603,188.505417 232.595337,188.505417 186.648071,188.505432 
	C185.482742,188.505432 184.317291,188.495071 183.152115,188.508133 
	C180.593597,188.536804 177.625900,188.500000 177.574570,191.930313 
	C177.517929,195.715210 180.669144,195.593811 183.391190,195.620102 
	C184.057037,195.626541 184.722977,195.621292 185.388885,195.621292 
	C234.832138,195.621292 284.275391,195.621277 333.718658,195.621246 
	C333.885132,195.621246 334.053253,195.636368 334.217865,195.618958 
	C337.151581,195.308456 341.653809,196.785110 341.698303,192.186661 
	C341.747192,187.127991 337.006561,188.770294 333.971008,188.549133 
	C331.155853,188.344055 328.313995,188.505463 324.489868,188.505417 
M278.500427,242.621918 
	C246.707321,242.621948 214.914200,242.623016 183.121094,242.620117 
	C180.562210,242.619888 177.638107,242.485657 177.574738,245.994049 
	C177.513397,249.389053 180.310303,249.658249 182.935791,249.704803 
	C183.601410,249.716614 184.267410,249.707596 184.933228,249.707596 
	C234.703598,249.707642 284.473969,249.710846 334.244324,249.693604 
	C335.896759,249.693024 337.767883,249.924454 339.136017,249.242798 
	C340.345856,248.639969 341.590088,246.957916 341.688354,245.666351 
	C341.756622,244.769043 340.063202,243.383774 338.872589,242.847244 
	C337.752197,242.342407 336.259338,242.628174 334.930328,242.627594 
	C316.453705,242.619522 297.977081,242.622040 278.500427,242.621918 
M199.500595,303.707916 
	C244.777466,303.707886 290.054321,303.712677 335.331207,303.696289 
	C338.127075,303.695282 341.740997,304.113617 341.761902,300.112885 
	C341.783539,295.972290 338.083344,296.652313 335.343353,296.638855 
	C326.188324,296.593842 317.032959,296.621674 307.877716,296.621674 
	C266.429413,296.621704 224.981125,296.619263 183.532822,296.627289 
	C180.874573,296.627777 177.577698,296.254517 177.590607,300.099457 
	C177.603104,303.817474 180.815033,303.690643 183.519852,303.701813 
	C188.513535,303.722443 193.507355,303.707825 199.500595,303.707916 
M331.357147,87.620995 
	C333.848938,87.551125 336.426819,87.837341 338.797028,87.264435 
	C340.021912,86.968346 341.670624,85.151077 341.676086,84.014091 
	C341.681488,82.897797 340.012207,81.502007 338.764832,80.743942 
	C337.894562,80.215065 336.496552,80.512390 335.334290,80.512230 
	C284.888611,80.505066 234.442932,80.499969 183.997253,80.521965 
	C181.249969,80.523163 177.571350,79.896553 177.606995,84.049225 
	C177.641830,88.104729 181.276779,87.511711 184.049667,87.614990 
	C185.047211,87.652138 186.047287,87.621002 187.046219,87.621002 
	C234.828094,87.620995 282.609985,87.620979 331.357147,87.620995 
M291.499054,350.621613 
	C255.881210,350.621582 220.263336,350.603088 184.645584,350.657318 
	C181.859909,350.661560 177.691360,349.545990 177.656693,353.994629 
	C177.619736,358.736023 181.942032,357.669952 184.901138,357.673737 
	C225.012756,357.724731 265.124451,357.708160 305.236115,357.707062 
	C306.401093,357.707031 307.775116,358.084259 308.684570,357.598419 
	C310.247955,356.763245 311.521667,355.385834 312.916931,354.236023 
	C311.436646,353.035370 310.031342,350.929047 308.462433,350.799194 
	C303.172363,350.361298 297.824097,350.625763 291.499054,350.621613 
z"/>
<path fill="#F4F4F4" opacity="1.000000" stroke="none" 
	d="
M97.100128,98.196045 
	C104.181755,92.421898 106.367805,85.813393 103.818855,78.646980 
	C101.537117,72.231834 95.443916,67.924416 88.515495,67.828682 
	C81.262825,67.728477 75.240875,71.830185 72.726875,78.582733 
	C69.709198,86.688133 72.932426,94.386147 81.994858,99.815536 
	C65.262680,104.755257 56.134354,115.641579 55.124031,132.951538 
	C43.769882,126.259033 37.154053,104.585648 41.125320,87.490242 
	C45.970070,66.634674 64.034225,51.875412 86.460930,50.448940 
	C106.481705,49.175499 126.139771,62.265965 133.509094,81.778725 
	C140.368576,99.941498 135.083527,122.685883 121.220985,133.508392 
	C121.038757,125.524071 118.914383,118.390823 114.061218,112.182770 
	C109.161133,105.914703 102.635269,102.219810 94.456535,100.002502 
	C95.595886,99.211365 96.190689,98.798347 97.100128,98.196045 
z"/>
<path fill="#6AD09D" opacity="1.000000" stroke="none" 
	d="
M314.172852,432.191040 
	C309.222107,439.587982 304.509705,446.721985 300.113617,453.377075 
	C300.113617,446.064941 299.613922,437.708038 300.316467,429.453491 
	C300.688812,425.078247 304.427002,422.217133 309.113129,421.979034 
	C314.058472,421.727692 319.026489,421.922638 323.232422,421.922638 
	C320.443970,425.085419 317.427582,428.506714 314.172852,432.191040 
z"/>
<path fill="#6AD09D" opacity="1.000000" stroke="none" 
	d="
M230.000305,134.505066 
	C264.960571,134.505066 299.420837,134.503998 333.881104,134.508575 
	C335.378387,134.508774 337.081146,134.123337 338.318726,134.704437 
	C339.730347,135.367264 340.727478,136.912933 341.904724,138.074951 
	C340.705109,139.225845 339.667908,140.689194 338.252502,141.425049 
	C337.192413,141.976181 335.645203,141.617630 334.314880,141.617752 
	C284.538940,141.622406 234.763000,141.621689 184.987061,141.621674 
	C184.487640,141.621674 183.988083,141.628967 183.488815,141.620193 
	C180.790451,141.572754 177.559891,141.762604 177.583130,138.008362 
	C177.606659,134.212311 180.891327,134.516983 183.553253,134.513901 
	C198.868912,134.496094 214.184601,134.505096 230.000305,134.505066 
z"/>
<path fill="#6AD09D" opacity="1.000000" stroke="none" 
	d="
M324.986877,188.505463 
	C328.313995,188.505463 331.155853,188.344055 333.971008,188.549133 
	C337.006561,188.770294 341.747192,187.127991 341.698303,192.186661 
	C341.653809,196.785110 337.151581,195.308456 334.217865,195.618958 
	C334.053253,195.636368 333.885132,195.621246 333.718658,195.621246 
	C284.275391,195.621277 234.832138,195.621292 185.388885,195.621292 
	C184.722977,195.621292 184.057037,195.626541 183.391190,195.620102 
	C180.669144,195.593811 177.517929,195.715210 177.574570,191.930313 
	C177.625900,188.500000 180.593597,188.536804 183.152115,188.508133 
	C184.317291,188.495071 185.482742,188.505432 186.648071,188.505432 
	C232.595337,188.505417 278.542603,188.505417 324.986877,188.505463 
z"/>
<path fill="#6AD09D" opacity="1.000000" stroke="none" 
	d="
M279.000427,242.621948 
	C297.977081,242.622040 316.453705,242.619522 334.930328,242.627594 
	C336.259338,242.628174 337.752197,242.342407 338.872589,242.847244 
	C340.063202,243.383774 341.756622,244.769043 341.688354,245.666351 
	C341.590088,246.957916 340.345856,248.639969 339.136017,249.242798 
	C337.767883,249.924454 335.896759,249.693024 334.244324,249.693604 
	C284.473969,249.710846 234.703598,249.707642 184.933228,249.707596 
	C184.267410,249.707596 183.601410,249.716614 182.935791,249.704803 
	C180.310303,249.658249 177.513397,249.389053 177.574738,245.994049 
	C177.638107,242.485657 180.562210,242.619888 183.121094,242.620117 
	C214.914200,242.623016 246.707321,242.621948 279.000427,242.621948 
z"/>
<path fill="#6AD09D" opacity="1.000000" stroke="none" 
	d="
M199.000854,303.707886 
	C193.507355,303.707825 188.513535,303.722443 183.519852,303.701813 
	C180.815033,303.690643 177.603104,303.817474 177.590607,300.099457 
	C177.577698,296.254517 180.874573,296.627777 183.532822,296.627289 
	C224.981125,296.619263 266.429413,296.621704 307.877716,296.621674 
	C317.032959,296.621674 326.188324,296.593842 335.343353,296.638855 
	C338.083344,296.652313 341.783539,295.972290 341.761902,300.112885 
	C341.740997,304.113617 338.127075,303.695282 335.331207,303.696289 
	C290.054321,303.712677 244.777466,303.707886 199.000854,303.707886 
z"/>
<path fill="#6AD09D" opacity="1.000000" stroke="none" 
	d="
M330.874512,87.620979 
	C282.609985,87.620979 234.828094,87.620995 187.046219,87.621002 
	C186.047287,87.621002 185.047211,87.652138 184.049667,87.614990 
	C181.276779,87.511711 177.641830,88.104729 177.606995,84.049225 
	C177.571350,79.896553 181.249969,80.523163 183.997253,80.521965 
	C234.442932,80.499969 284.888611,80.505066 335.334290,80.512230 
	C336.496552,80.512390 337.894562,80.215065 338.764832,80.743942 
	C340.012207,81.502007 341.681488,82.897797 341.676086,84.014091 
	C341.670624,85.151077 340.021912,86.968346 338.797028,87.264435 
	C336.426819,87.837341 333.848938,87.551125 330.874512,87.620979 
z"/>
<path fill="#6AD09D" opacity="1.000000" stroke="none" 
	d="
M291.998596,350.621613 
	C297.824097,350.625763 303.172363,350.361298 308.462433,350.799194 
	C310.031342,350.929047 311.436646,353.035370 312.916931,354.236023 
	C311.521667,355.385834 310.247955,356.763245 308.684570,357.598419 
	C307.775116,358.084259 306.401093,357.707031 305.236115,357.707062 
	C265.124451,357.708160 225.012756,357.724731 184.901138,357.673737 
	C181.942032,357.669952 177.619736,358.736023 177.656693,353.994629 
	C177.691360,349.545990 181.859909,350.661560 184.645584,350.657318 
	C220.263336,350.603088 255.881210,350.621582 291.998596,350.621613 
z"/>
</svg>